<svg width="20" height="20" viewBox="0 0 20 20" fill="none" xmlns="http://www.w3.org/2000/svg">
<path d="M18.07 4.11002C16.9817 2.6074 15.4912 1.4427 13.77 0.750019C12.2526 0.132383 10.6067 -0.102984 8.977 0.0646121C7.3473 0.232208 5.78375 0.797634 4.42381 1.71117C3.06387 2.62471 1.94921 3.85838 1.17783 5.3037C0.406452 6.74903 0.00198717 8.36173 0 10C0 10.19 0 10.38 0 10.56C0.0872638 12.1241 0.542985 13.6455 1.33 15C2.61526 17.2559 4.72747 18.9234 7.22 19.65C8.12593 19.8952 9.06158 20.013 10 20C10.6311 20.0029 11.2609 19.9426 11.88 19.82C13.9226 19.4246 15.7911 18.402 17.2251 16.8945C18.659 15.387 19.5871 13.4699 19.88 11.41C19.9551 10.9437 19.9953 10.4724 20 10C20.0087 7.87993 19.3317 5.81385 18.07 4.11002V4.11002ZM16.07 4.88002L15 7.74002L13.38 8.18002L11 6.49002V4.64002L13.49 2.83002C14.5004 3.31726 15.394 4.01646 16.11 4.88002H16.07ZM12 9.67002L11.22 12H8.77L8 9.67002L10 8.24002L12 9.67002ZM10 2.00002C10.3716 2.0042 10.7425 2.03427 11.11 2.09002L10 2.89002L8.89 2.09002C9.25746 2.03427 9.62836 2.0042 10 2.00002V2.00002ZM2.88 6.37002L3.28 7.69002L2.15 8.48002C2.29195 7.7456 2.53775 7.03514 2.88 6.37002V6.37002ZM4.25 15.54L5.63 15.59L6 16.92C5.35742 16.5406 4.76881 16.0764 4.25 15.54V15.54ZM6 13.6L2.85 13.49C2.45256 12.7095 2.1889 11.8678 2.07 11L4.56 9.26002L6 9.88002L6.89 12.64L6 13.6ZM6.86 8.07002L5.3 7.37002L4.39 4.37002C5.00337 3.74358 5.71637 3.22318 6.5 2.83002L9 4.64002V6.49002L6.86 8.07002ZM11 17.93C10.1227 18.0341 9.23421 17.9935 8.37 17.81L7.54 14.89L8.37 14H11.44L12.11 15L11 17.93ZM13.41 17.23L13.87 16L15.23 16.07C14.6705 16.5412 14.0478 16.9317 13.38 17.23H13.41ZM16.87 14.11L13.76 14L13.05 12.9L13.94 10.14L15.45 9.73002L17.81 11.73C17.6198 12.5713 17.2921 13.3754 16.84 14.11H16.87ZM16.92 8.28002L17.4 7.00002C17.6816 7.67972 17.8602 8.39762 17.93 9.13002L16.92 8.28002Z" fill="#828282"/>
</svg>
