<svg width="31" height="36" viewBox="0 0 31 36" fill="none" xmlns="http://www.w3.org/2000/svg">
<path d="M5.5738 14V4.2H12.4058V6.23H7.8838V11.97H12.5458V14H5.5738ZM6.6938 9.982V8.05H11.7758V9.982H6.6938ZM14.5972 14V4.2H16.7252L21.8632 11.2L21.4012 11.13C21.3546 10.822 21.3172 10.528 21.2892 10.248C21.2612 9.968 21.2332 9.69267 21.2052 9.422C21.1866 9.15133 21.1679 8.876 21.1492 8.596C21.1399 8.316 21.1306 8.01267 21.1212 7.686C21.1212 7.35933 21.1212 7.00467 21.1212 6.622V4.2H23.4312V14H21.2752L15.9132 6.776L16.6272 6.874C16.6739 7.322 16.7112 7.70467 16.7392 8.022C16.7766 8.33 16.8046 8.60533 16.8232 8.848C16.8512 9.09067 16.8699 9.31 16.8792 9.506C16.8886 9.702 16.8932 9.898 16.8932 10.094C16.9026 10.2807 16.9072 10.4907 16.9072 10.724V14H14.5972Z" fill="#828282"/>
<path fill-rule="evenodd" clip-rule="evenodd" d="M21.9583 17.4583H9.04167C4.04809 17.4583 0 21.5064 0 26.5C0 31.4936 4.04809 35.5416 9.04167 35.5416H21.9583C26.9519 35.5416 31 31.4936 31 26.5C31 21.5064 26.9519 17.4583 21.9583 17.4583ZM2.58333 26.5C2.58333 22.9331 5.47483 20.0416 9.04167 20.0416H21.9583C25.5252 20.0416 28.4167 22.9331 28.4167 26.5C28.4167 30.0668 25.5252 32.9583 21.9583 32.9583H9.04167C5.47483 32.9583 2.58333 30.0668 2.58333 26.5ZM9.04167 31.6666C6.1882 31.6666 3.875 29.3535 3.875 26.5C3.875 23.6465 6.1882 21.3333 9.04167 21.3333C11.8951 21.3333 14.2083 23.6465 14.2083 26.5C14.2083 29.3535 11.8951 31.6666 9.04167 31.6666ZM11.625 26.5C11.625 27.9267 10.4684 29.0833 9.04167 29.0833C7.61493 29.0833 6.45833 27.9267 6.45833 26.5C6.45833 25.0732 7.61493 23.9166 9.04167 23.9166C10.4684 23.9166 11.625 25.0732 11.625 26.5Z" fill="#4F4F4F"/>
</svg>
