<svg width="31" height="38" viewBox="0 0 31 38" fill="none" xmlns="http://www.w3.org/2000/svg">
<path fill-rule="evenodd" clip-rule="evenodd" d="M21.9583 19.4583H9.04167C4.04809 19.4583 0 23.5064 0 28.5C0 33.4936 4.04809 37.5417 9.04167 37.5417H21.9583C26.9519 37.5417 31 33.4936 31 28.5C31 23.5064 26.9519 19.4583 21.9583 19.4583ZM2.58333 28.5C2.58333 24.9332 5.47483 22.0417 9.04167 22.0417H21.9583C25.5252 22.0417 28.4167 24.9332 28.4167 28.5C28.4167 32.0668 25.5252 34.9583 21.9583 34.9583H9.04167C5.47483 34.9583 2.58333 32.0668 2.58333 28.5ZM21.9583 33.6667C19.1049 33.6667 16.7917 31.3535 16.7917 28.5C16.7917 25.6465 19.1049 23.3333 21.9583 23.3333C24.8118 23.3333 27.125 25.6465 27.125 28.5C27.125 31.3535 24.8118 33.6667 21.9583 33.6667ZM24.5417 28.5C24.5417 29.9267 23.3851 31.0833 21.9583 31.0833C20.5316 31.0833 19.375 29.9267 19.375 28.5C19.375 27.0733 20.5316 25.9167 21.9583 25.9167C23.3851 25.9167 24.5417 27.0733 24.5417 28.5Z" fill="#4F4F4F"/>
<path d="M7.51032 16V6.2H11.7383C12.3543 6.2 12.9003 6.34 13.3763 6.62C13.8617 6.9 14.2443 7.28267 14.5243 7.768C14.8137 8.25333 14.9583 8.79933 14.9583 9.406C14.9583 10.0407 14.8137 10.61 14.5243 11.114C14.2443 11.6087 13.8617 12.0007 13.3763 12.29C12.9003 12.5793 12.3543 12.724 11.7383 12.724H9.89032V16H7.51032ZM9.84832 10.638H11.4023C11.6077 10.638 11.7943 10.5867 11.9623 10.484C12.1303 10.3813 12.2657 10.2413 12.3683 10.064C12.471 9.88667 12.5223 9.68133 12.5223 9.448C12.5223 9.20533 12.471 9 12.3683 8.832C12.2657 8.664 12.1303 8.53333 11.9623 8.44C11.7943 8.34667 11.6077 8.3 11.4023 8.3H9.84832V10.638ZM18.9079 16V8.3H15.9959V6.2H24.2699V8.3H21.2879V16H18.9079Z" fill="#828282"/>
</svg>
