<svg width="14" height="14" viewBox="0 0 14 14" fill="none" xmlns="http://www.w3.org/2000/svg">
<path fill-rule="evenodd" clip-rule="evenodd" d="M4.66675 3.5H3.50008V2.91666H2.33341V4.66666H11.6667V2.91666H10.5001V3.5H9.33342V2.91666H4.66675V3.5ZM11.6667 5.83333H2.33341V11.6667H11.6667V5.83333ZM9.33342 1.75H4.66675V1.16666H3.50008V1.75H2.33341C1.68908 1.75 1.16675 2.27233 1.16675 2.91666V11.6667C1.16675 12.311 1.68908 12.8333 2.33341 12.8333H11.6667C12.3111 12.8333 12.8334 12.311 12.8334 11.6667V2.91666C12.8334 2.27233 12.3111 1.75 11.6667 1.75H10.5001V1.16666H9.33342V1.75ZM5.25008 8.16666H4.08341V7H5.25008V8.16666ZM6.41675 8.16666H7.58341V7H6.41675V8.16666ZM9.91675 8.16666H8.75008V7H9.91675V8.16666ZM4.08341 10.5H5.25008V9.33333H4.08341V10.5ZM7.58341 10.5H6.41675V9.33333H7.58341V10.5Z" fill="#4F4F4F"/>
</svg>
