<svg width="14" height="14" viewBox="0 0 14 14" fill="none" xmlns="http://www.w3.org/2000/svg">
<path fill-rule="evenodd" clip-rule="evenodd" d="M6.33297 4.86382C6.63519 4.45653 6.74357 4.02728 6.40176 3.64839C5.6347 2.57507 5.11883 1.91133 4.79526 1.59169C4.1801 0.98401 3.16815 1.06621 2.63538 1.59117C2.34922 1.87313 2.25234 1.96996 1.95852 2.2684C0.321893 3.9059 1.31999 7.36754 3.97331 10.0235C6.62603 12.6788 10.0873 13.6774 11.7274 12.0365C11.9985 11.7751 12.2281 11.5454 12.4091 11.354C12.9312 10.8022 13.0105 9.83487 12.4057 9.20645C12.0956 8.88427 11.4627 8.39331 10.3442 7.59325C10.0017 7.28694 9.59548 7.35333 9.22311 7.59763C9.04398 7.71515 8.91363 7.83402 8.66748 8.08041L8.22051 8.52763C8.16164 8.58653 7.36224 8.1862 6.58625 7.40944C5.80984 6.63227 5.40977 5.83283 5.46837 5.77423L5.91565 5.3267C5.99375 5.24853 6.03108 5.21069 6.07896 5.16036C6.17872 5.05552 6.26131 4.96038 6.33297 4.86382ZM9.04501 9.35259L9.49208 8.90528C9.62754 8.76968 9.71534 8.6863 9.78676 8.62882C10.7666 9.33244 11.334 9.77487 11.5658 10.0157C11.7049 10.1603 11.6833 10.4241 11.5623 10.552C11.3949 10.7289 11.1774 10.9466 10.9105 11.204C9.84999 12.265 7.05594 11.4589 4.79799 9.19869C2.53933 6.93781 1.7336 4.14334 2.78611 3.09024C3.07875 2.79303 3.17147 2.70036 3.45354 2.42242C3.5593 2.31821 3.84739 2.29481 3.97604 2.4219C4.22517 2.668 4.68728 3.2597 5.36708 4.20665C5.33189 4.25034 5.28793 4.29972 5.23444 4.35593C5.19518 4.39719 5.16248 4.43035 5.09097 4.50192L4.64413 4.94902C3.88396 5.70912 4.53134 7.00279 5.76157 8.23422C6.99095 9.46481 8.2851 10.1129 9.04501 9.35259Z" fill="#4F4F4F"/>
</svg>
