<svg width="20" height="20" viewBox="0 0 15 14" fill="none" xmlns="http://www.w3.org/2000/svg">
<rect x="0.0612793" width="14" height="14" fill="white" fill-opacity="0.01"/>
<path fill-rule="evenodd" clip-rule="evenodd" d="M7.06104 13.6077L7.44471 13.2727C10.6711 10.4555 12.311 7.9956 12.311 5.83333C12.311 2.77122 9.92109 0.583328 7.06104 0.583328C4.20098 0.583328 1.81104 2.77122 1.81104 5.83333C1.81104 7.9956 3.45096 10.4555 6.67736 13.2727L7.06104 13.6077ZM7.06098 12.0536C4.32317 9.58623 2.97764 7.49538 2.97764 5.83333C2.97764 3.43968 4.82338 1.75 7.06098 1.75C9.29857 1.75 11.1443 3.43968 11.1443 5.83333C11.1443 7.49538 9.79879 9.58623 7.06098 12.0536ZM7.06099 2.91666C8.67182 2.91666 9.97765 4.2225 9.97765 5.83333C9.97765 7.44416 8.67182 8.75 7.06099 8.75C5.45016 8.75 4.14432 7.44416 4.14432 5.83333C4.14432 4.2225 5.45016 2.91666 7.06099 2.91666ZM5.31122 5.83333C5.31122 4.86683 6.09473 4.08333 7.06122 4.08333C8.02772 4.08333 8.81122 4.86683 8.81122 5.83333C8.81122 6.79983 8.02772 7.58333 7.06122 7.58333C6.09473 7.58333 5.31122 6.79983 5.31122 5.83333Z" fill="#4F4F4F"/>
<mask id="mask0_13_41" style="mask-type:alpha" maskUnits="userSpaceOnUse" x="1" y="0" width="12" height="14">
<path fill-rule="evenodd" clip-rule="evenodd" d="M7.06104 13.6077L7.44471 13.2727C10.6711 10.4555 12.311 7.9956 12.311 5.83333C12.311 2.77122 9.92109 0.583328 7.06104 0.583328C4.20098 0.583328 1.81104 2.77122 1.81104 5.83333C1.81104 7.9956 3.45096 10.4555 6.67736 13.2727L7.06104 13.6077ZM7.06098 12.0536C4.32317 9.58623 2.97764 7.49538 2.97764 5.83333C2.97764 3.43968 4.82338 1.75 7.06098 1.75C9.29857 1.75 11.1443 3.43968 11.1443 5.83333C11.1443 7.49538 9.79879 9.58623 7.06098 12.0536ZM7.06099 2.91666C8.67182 2.91666 9.97765 4.2225 9.97765 5.83333C9.97765 7.44416 8.67182 8.75 7.06099 8.75C5.45016 8.75 4.14432 7.44416 4.14432 5.83333C4.14432 4.2225 5.45016 2.91666 7.06099 2.91666ZM5.31122 5.83333C5.31122 4.86683 6.09473 4.08333 7.06122 4.08333C8.02772 4.08333 8.81122 4.86683 8.81122 5.83333C8.81122 6.79983 8.02772 7.58333 7.06122 7.58333C6.09473 7.58333 5.31122 6.79983 5.31122 5.83333Z" fill="white"/>
</mask>
<g mask="url(#mask0_13_41)">
</g>
</svg>
